<?xml version="1.0" standalone="no"?>
<!DOCTYPE svg PUBLIC "-//W3C//DTD SVG 20010904//EN"
 "http://www.w3.org/TR/2001/REC-SVG-20010904/DTD/svg10.dtd">
<svg version="1.0" xmlns="http://www.w3.org/2000/svg"
 width="481.000000pt" height="481.000000pt" viewBox="0 0 481.000000 481.000000"
 preserveAspectRatio="xMidYMid meet">
<metadata>
Created by potrace 1.11, written by Peter Selinger 2001-2013
</metadata>
<g transform="translate(0.000000,481.000000) scale(0.100000,-0.100000)"
fill="#000000" stroke="none">
<path d="M2180 4633 c-31 -10 -116 -53 -130 -65 -24 -20 -120 -134 -120 -141
0 -10 -53 -91 -62 -95 -5 -2 -8 -15 -8 -28 0 -15 -6 -24 -15 -24 -8 0 -15 -9
-15 -20 0 -11 -4 -20 -10 -20 -5 0 -13 -12 -16 -27 -4 -16 -14 -41 -22 -58
-14 -28 -18 -43 -26 -105 -1 -14 -7 -34 -13 -45 -6 -11 -8 -26 -6 -32 3 -7 -2
-22 -11 -34 -10 -15 -12 -27 -6 -39 7 -12 5 -21 -4 -29 -7 -6 -11 -23 -8 -41
2 -17 -2 -40 -11 -53 -9 -15 -12 -29 -7 -37 5 -8 3 -22 -6 -34 -9 -13 -12 -33
-8 -58 5 -31 4 -38 -10 -38 -14 0 -15 -4 -6 -20 8 -14 8 -32 0 -59 -6 -22 -8
-58 -5 -80 4 -33 2 -39 -11 -34 -12 4 -14 0 -10 -21 4 -14 8 -37 11 -51 4 -16
1 -25 -7 -25 -13 0 -18 -32 -17 -123 0 -32 -4 -47 -11 -42 -7 4 -9 -9 -6 -41
3 -27 0 -54 -6 -61 -6 -7 -8 -29 -5 -49 4 -23 2 -37 -6 -40 -8 -3 -13 -34 -15
-86 -1 -45 -6 -84 -11 -88 -5 -3 -9 -23 -9 -45 0 -72 -9 -139 -19 -142 -6 -2
-8 -15 -5 -28 2 -14 -1 -32 -8 -40 -8 -10 -10 -29 -6 -55 5 -32 3 -40 -9 -40
-9 0 -14 -4 -11 -9 3 -5 8 -25 11 -45 5 -26 2 -38 -8 -42 -11 -4 -13 -13 -8
-32 5 -16 2 -40 -5 -58 -7 -17 -11 -40 -8 -51 4 -13 0 -22 -10 -26 -12 -5 -14
-12 -6 -31 6 -18 5 -26 -5 -30 -10 -4 -13 -17 -8 -51 4 -38 2 -45 -12 -45 -12
0 -15 -5 -9 -22 10 -29 9 -48 -1 -128 -10 -85 -11 -119 -1 -152 6 -22 4 -29
-9 -34 -20 -8 -155 32 -155 46 0 4 -28 17 -63 29 -35 11 -97 36 -138 55 -133
62 -152 68 -161 54 -7 -12 -11 -41 -11 -78 1 -8 17 -62 36 -120 20 -58 38
-117 41 -132 6 -34 -6 -35 -84 -8 -66 23 -94 25 -109 6 -15 -18 -21 -93 -9
-131 5 -16 9 -56 9 -88 0 -41 4 -57 14 -57 8 0 16 4 20 10 3 5 12 7 20 3 10
-3 15 2 15 17 0 11 4 19 9 15 23 -13 19 18 -9 80 -16 37 -30 71 -30 75 0 5 12
5 28 0 39 -12 82 -34 82 -42 0 -4 7 -5 15 -2 8 3 38 -2 67 -12 29 -10 56 -17
61 -16 4 1 7 -3 7 -9 0 -5 4 -8 9 -4 20 12 21 -17 2 -44 -19 -26 -53 -40 -112
-45 -10 -1 -102 -64 -129 -88 -39 -35 -63 -96 -66 -166 -4 -77 12 -128 72
-229 24 -41 44 -87 44 -101 0 -15 -11 -51 -25 -80 -28 -60 -54 -75 -124 -68
-77 7 -184 -60 -121 -77 25 -6 148 18 214 44 39 14 52 16 58 6 4 -6 8 -8 8 -3
0 5 7 3 15 -4 20 -17 19 -46 -3 -62 -34 -24 -110 -126 -122 -163 -12 -37 -5
-54 23 -55 13 0 57 51 102 121 24 37 47 69 52 72 5 3 43 7 84 9 66 2 78 -1
114 -25 105 -71 249 -86 339 -33 46 27 92 75 106 111 5 13 24 26 49 34 29 8
41 17 41 31 0 10 4 22 10 25 5 3 10 2 10 -4 0 -5 8 -8 19 -6 23 4 117 51 152
76 14 10 37 21 52 24 24 6 47 31 72 80 9 16 20 20 60 18 28 -1 75 -6 105 -12
30 -5 82 -12 115 -15 33 -3 87 -8 120 -11 33 -3 120 -8 193 -10 74 -3 137 -7
141 -10 5 -2 50 -7 102 -11 52 -3 97 -8 100 -9 3 -2 37 -7 75 -10 38 -4 80 -8
93 -10 14 -3 54 -7 90 -11 36 -3 73 -8 83 -9 10 -2 82 -11 161 -20 78 -9 149
-18 157 -20 8 -3 38 -7 65 -10 28 -3 66 -8 85 -10 366 -46 635 -27 801 56 64
32 142 113 159 165 26 78 -19 182 -127 295 -42 44 -78 77 -81 74 -3 -3 -12 1
-21 9 -18 16 -176 97 -194 100 -7 1 -17 5 -23 8 -58 37 -348 102 -509 114 -33
3 -87 12 -120 21 -33 9 -68 15 -79 15 -10 -1 -29 6 -42 15 -13 8 -24 13 -24 9
0 -3 -12 -1 -27 5 -28 11 -199 14 -240 5 -13 -3 -23 -1 -23 5 0 11 -46 4 -63
-9 -7 -5 -25 -13 -42 -16 -53 -11 -70 -15 -92 -22 -18 -5 -23 -2 -23 11 0 10
8 24 18 32 10 9 11 11 2 7 -8 -4 19 26 61 67 80 78 136 151 159 209 8 19 27
48 43 65 16 16 36 42 45 57 9 16 23 30 32 33 8 3 20 15 26 27 6 13 23 47 38
76 34 67 56 160 56 237 0 46 7 73 30 119 17 32 30 69 30 82 0 12 5 26 10 29
15 9 12 107 -5 156 -36 102 -134 143 -305 128 -14 -1 -63 1 -110 5 -76 6 -98
4 -200 -23 -154 -40 -286 -86 -329 -114 -20 -13 -62 -40 -94 -62 -32 -21 -60
-35 -63 -32 -4 3 -1 21 6 39 12 34 13 41 30 136 27 159 35 229 45 397 4 60 9
113 11 117 24 39 23 525 -1 648 -3 14 -7 39 -9 55 -20 144 -88 368 -152 499
-24 49 -41 92 -38 97 3 5 -1 9 -9 9 -8 0 -27 15 -43 33 -25 29 -65 59 -76 56
-2 0 -10 -3 -18 -6z m-1005 -2959 c105 -51 108 -54 95 -103 -9 -35 -16 -42
-52 -53 -29 -8 -47 -22 -60 -45 -17 -28 -23 -32 -51 -26 -18 3 -35 8 -38 12
-14 13 -119 273 -114 281 8 13 141 -27 220 -66z"/>
</g>
</svg>
